<svg width="54" height="37" viewBox="0 0 54 37" fill="none" xmlns="http://www.w3.org/2000/svg">
<g clip-path="url(#clip0_186_25)">
<path d="M52.3021 5.88637C51.684 3.62264 49.901 1.85001 47.6153 1.24455C44.5451 0.0706419 14.8078 -0.50454 6.18136 1.27819C3.8957 1.89037 2.10589 3.65628 1.49457 5.92001C0.108906 11.9409 0.00362335 24.9582 1.52853 31.1136C2.14664 33.3774 3.92966 35.15 6.21532 35.7555C12.2946 37.1413 41.1965 37.3364 47.6493 35.7555C49.9349 35.1433 51.7248 33.3774 52.3361 31.1136C53.8134 24.5546 53.9187 12.3446 52.3021 5.88637Z" fill="#FF0000"/>
<path d="M35.6603 18.5L21.8037 10.6291V26.3709L35.6603 18.5Z" fill="white"/>
</g>
<defs>
<clipPath id="clip0_186_25">
<rect width="54" height="37" fill="white"/>
</clipPath>
</defs>
</svg>
