<svg width="60" height="60" viewBox="0 0 60 60" fill="none" xmlns="http://www.w3.org/2000/svg">
<path d="M30 5.625C25.1791 5.625 20.4664 7.05457 16.458 9.73293C12.4495 12.4113 9.32533 16.2181 7.48045 20.6721C5.63556 25.126 5.15285 30.027 6.09337 34.7553C7.03388 39.4836 9.35538 43.8268 12.7643 47.2357C16.1732 50.6446 20.5164 52.9661 25.2447 53.9066C29.973 54.8472 34.874 54.3644 39.3279 52.5196C43.7819 50.6747 47.5887 47.5505 50.2671 43.542C52.9454 39.5336 54.375 34.8209 54.375 30C54.3682 23.5374 51.7979 17.3415 47.2282 12.7718C42.6585 8.20209 36.4626 5.63182 30 5.625ZM50.625 30C50.6271 32.646 50.1177 35.2675 49.125 37.7203L38.6484 31.2773C38.203 31.0025 37.7047 30.8244 37.1859 30.7547L31.8375 30.0328C31.1005 29.9367 30.3516 30.0603 29.6845 30.388C29.0174 30.7157 28.4619 31.2329 28.0875 31.875H26.0438L25.1531 30.0328C24.9069 29.5199 24.5466 29.0701 24.0997 28.7178C23.6528 28.3656 23.1313 28.1203 22.575 28.0008L20.7 27.5953L22.5328 24.375H26.4492C27.083 24.3738 27.7061 24.2125 28.2609 23.9062L31.132 22.3219C31.3843 22.1813 31.6201 22.013 31.8352 21.8203L38.1422 16.1156C38.7745 15.5489 39.1948 14.7836 39.3337 13.9459C39.4726 13.1083 39.3219 12.2483 38.9063 11.5078L38.8219 11.3555C42.3511 13.0289 45.3334 15.6689 47.4226 18.969C49.5118 22.2692 50.6222 26.0941 50.625 30ZM9.37501 30C9.37188 26.9344 10.0558 23.9071 11.3766 21.1406L14.0344 28.2352C14.2559 28.8226 14.6213 29.345 15.0971 29.7544C15.573 30.1639 16.144 30.4474 16.7578 30.5789L21.7805 31.6594L22.6734 33.5156C22.9833 34.147 23.4636 34.6791 24.06 35.0518C24.6564 35.4245 25.3452 35.6231 26.0484 35.625H26.3953L24.7008 39.4289C24.4022 40.0987 24.3066 40.8413 24.4257 41.5649C24.5449 42.2885 24.8736 42.9613 25.3711 43.5L25.4039 43.5328L30 48.2672L29.5453 50.6109C24.159 50.4856 19.0349 48.2601 15.2665 44.4094C11.4982 40.5588 9.38395 35.3878 9.37501 30Z" fill="#F824FF"/>
</svg>
