<svg width="42" height="42" viewBox="0 0 42 42" fill="none" xmlns="http://www.w3.org/2000/svg">
<g clip-path="url(#clip0_80_2582)">
<path fill-rule="evenodd" clip-rule="evenodd" d="M19.5318 8.59937C19.9213 8.9888 20.4493 9.20786 21 9.20847C21.5508 9.20786 22.0788 8.9888 22.4682 8.59937C22.8577 8.20993 23.0767 7.68192 23.0773 7.13117V2.0773C23.0773 1.52636 22.8585 0.997995 22.4689 0.608426C22.0793 0.218858 21.551 0 21 0C20.4491 0 19.9207 0.218858 19.5312 0.608426C19.1416 0.997995 18.9227 1.52636 18.9227 2.0773V7.13117C18.9233 7.68192 19.1424 8.20993 19.5318 8.59937ZM13.0276 10.7877C13.3435 10.9702 13.7017 11.0665 14.0664 11.0671C14.431 11.0668 14.7891 10.9707 15.1047 10.7882C15.4203 10.6058 15.6824 10.3436 15.8646 10.0278C16.0468 9.71206 16.1427 9.35392 16.1427 8.98937C16.1427 8.62482 16.0468 8.26669 15.8646 7.95094L13.3379 3.57394C13.2022 3.33625 13.0209 3.12771 12.8043 2.96031C12.5878 2.79291 12.3404 2.66993 12.0762 2.59846C11.812 2.52699 11.5363 2.50842 11.2649 2.54382C10.9935 2.57923 10.7318 2.66791 10.4948 2.80477C10.2577 2.94163 10.0501 3.12397 9.88378 3.34132C9.71745 3.55867 9.59571 3.80674 9.52554 4.07129C9.45538 4.33583 9.43818 4.61163 9.47493 4.88284C9.51168 5.15405 9.60166 5.41533 9.73969 5.65166L12.2666 10.0274C12.4494 10.3431 12.7118 10.6053 13.0276 10.7877ZM8.98839 16.1441C8.62401 16.1438 8.26611 16.0478 7.95058 15.8655L3.57358 13.3377C3.33482 13.2026 3.12518 13.0216 2.95677 12.805C2.78835 12.5885 2.6645 12.3407 2.59235 12.076C2.52021 11.8113 2.5012 11.535 2.53642 11.2629C2.57165 10.9908 2.66041 10.7284 2.79758 10.4909C2.93476 10.2533 3.11763 10.0452 3.33564 9.87869C3.55365 9.71216 3.80249 9.59046 4.06778 9.52061C4.33308 9.45076 4.60959 9.43415 4.88134 9.47174C5.15309 9.50932 5.41471 9.60035 5.65109 9.73958L10.027 12.2665C10.4235 12.495 10.7335 12.848 10.9088 13.2707C11.0841 13.6933 11.1149 14.1621 10.9965 14.6041C10.8781 15.0461 10.6171 15.4367 10.254 15.7151C9.89088 15.9936 9.44598 16.1444 8.98839 16.1441ZM0.608426 22.469C0.997995 22.8586 1.52636 23.0774 2.0773 23.0774H7.13117C7.6821 23.0774 8.21047 22.8586 8.60004 22.469C8.98961 22.0795 9.20847 21.5511 9.20847 21.0001C9.20847 20.4492 8.98961 19.9208 8.60004 19.5313C8.21047 19.1417 7.6821 18.9229 7.13117 18.9229H2.0773C1.52636 18.9229 0.997995 19.1417 0.608426 19.5313C0.218858 19.9208 0 20.4492 0 21.0001C0 21.5511 0.218858 22.0795 0.608426 22.469ZM4.61327 32.5387C4.15585 32.539 3.71115 32.3882 3.34816 32.1099C2.98517 31.8315 2.72419 31.4412 2.6057 30.9994C2.48721 30.5576 2.51785 30.089 2.69285 29.6664C2.86785 29.2438 3.17743 28.8907 3.57357 28.662L7.95036 26.1353C8.18678 25.9948 8.44875 25.9026 8.72107 25.8642C8.99339 25.8257 9.27064 25.8417 9.53674 25.9112C9.80283 25.9807 10.0525 26.1024 10.2712 26.2692C10.4899 26.4359 10.6733 26.6444 10.8108 26.8826C10.9483 27.1208 11.0371 27.384 11.0721 27.6567C11.1071 27.9295 11.0875 28.2066 11.0146 28.4717C10.9417 28.7369 10.8169 28.985 10.6473 29.2016C10.4778 29.4181 10.267 29.5988 10.027 29.7333L5.65045 32.2602C5.33509 32.4423 4.97743 32.5384 4.61327 32.5387ZM10.4995 39.1866C10.8151 39.369 11.1732 39.4652 11.5378 39.4654C11.9025 39.4649 12.2606 39.3687 12.5765 39.1864C12.8924 39.0042 13.1549 38.7422 13.3378 38.4268L15.8646 34.0506C16.002 33.8143 16.0915 33.5532 16.1279 33.2823C16.1642 33.0113 16.1468 32.7359 16.0764 32.4717C16.0061 32.2075 15.8844 31.9598 15.7181 31.7428C15.5519 31.5258 15.3444 31.3437 15.1077 31.207C14.8709 31.0703 14.6095 30.9817 14.3385 30.9463C14.0674 30.9108 13.792 30.9292 13.5281 31.0004C13.2641 31.0716 13.0168 31.1942 12.8004 31.3611C12.5839 31.5281 12.4025 31.7361 12.2666 31.9733L9.73967 36.3491C9.55741 36.6648 9.46145 37.023 9.46143 37.3876C9.4614 37.7522 9.55731 38.1103 9.73951 38.4261C9.92172 38.7419 10.1838 39.0042 10.4995 39.1866ZM21 42.0005C20.4493 41.9998 19.9213 41.7808 19.5318 41.3914C19.1424 41.0019 18.9233 40.4739 18.9227 39.9232V34.8693C18.9227 34.3184 19.1416 33.79 19.5312 33.4004C19.9207 33.0108 20.4491 32.792 21 32.792C21.551 32.792 22.0793 33.0108 22.4689 33.4004C22.8585 33.79 23.0773 34.3184 23.0773 34.8693V39.9232C23.0767 40.4739 22.8577 41.0019 22.4682 41.3914C22.0788 41.7808 21.5508 41.9998 21 42.0005ZM29.4235 39.1862C29.7394 39.3684 30.0975 39.4646 30.4622 39.4652V39.466C30.8268 39.4658 31.1849 39.3696 31.5005 39.1872C31.8162 39.0047 32.0783 38.7425 32.2605 38.4267C32.4427 38.1109 32.5386 37.7527 32.5386 37.3881C32.5385 37.0235 32.4426 36.6654 32.2603 36.3496L29.7334 31.9731C29.599 31.7331 29.4182 31.5223 29.2017 31.3527C28.9851 31.1832 28.737 31.0584 28.4719 30.9855C28.2067 30.9125 27.9297 30.893 27.6569 30.928C27.3841 30.963 27.1209 31.0518 26.8828 31.1893C26.6446 31.3268 26.436 31.5102 26.2693 31.7289C26.1025 31.9476 25.9809 32.1973 25.9113 32.4633C25.8418 32.7294 25.8258 33.0067 25.8643 33.279C25.9028 33.5513 25.9949 33.8133 26.1354 34.0497L28.6622 38.4265C28.8451 38.742 29.1077 39.0039 29.4235 39.1862ZM37.3867 32.5387C37.0223 32.5385 36.6643 32.4424 36.3487 32.2602L31.973 29.7332C31.7358 29.5973 31.5277 29.416 31.3608 29.1995C31.1938 28.983 31.0712 28.7357 31 28.4718C30.9288 28.2078 30.9104 27.9324 30.9459 27.6614C30.9813 27.3903 31.07 27.1289 31.2067 26.8922C31.3433 26.6554 31.5254 26.448 31.7424 26.2817C31.9595 26.1155 32.2072 25.9937 32.4713 25.9234C32.7355 25.8531 33.011 25.8356 33.2819 25.872C33.5529 25.9083 33.814 25.9978 34.0503 26.1353L38.4264 28.662C38.8225 28.8907 39.1321 29.2437 39.3071 29.6663C39.4821 30.0889 39.5128 30.5575 39.3943 30.9993C39.2759 31.441 39.0149 31.8314 38.652 32.1097C38.289 32.3881 37.8443 32.5389 37.3869 32.5387H37.3867ZM33.3999 22.469C33.7895 22.8586 34.3179 23.0774 34.8688 23.0774H39.9227C40.4736 23.0774 41.002 22.8586 41.3915 22.469C41.7811 22.0795 42 21.5511 42 21.0001C42 20.4492 41.7811 19.9208 41.3915 19.5313C41.002 19.1417 40.4736 18.9229 39.9227 18.9229H34.8688C34.3179 18.9229 33.7895 19.1417 33.3999 19.5313C33.0104 19.9208 32.7915 20.4492 32.7915 21.0001C32.7915 21.5511 33.0104 22.0795 33.3999 22.469ZM33.0116 16.1438C32.554 16.1441 32.1091 15.9933 31.746 15.7149C31.3829 15.4364 31.1219 15.0459 31.0035 14.6039C30.8851 14.1618 30.9159 13.6931 31.0912 13.2704C31.2665 12.8477 31.5765 12.4948 31.973 12.2663L36.3496 9.73935C36.8261 9.47376 37.388 9.4063 37.9139 9.55152C38.4398 9.69675 38.8874 10.043 39.1602 10.5155C39.4329 10.988 39.5088 11.5489 39.3715 12.0769C39.2343 12.6049 38.8948 13.0577 38.4264 13.3375L34.0494 15.8642C33.734 16.0468 33.3761 16.1433 33.0116 16.1438ZM26.8953 10.7882C27.2109 10.9706 27.569 11.0668 27.9336 11.067C28.2983 11.0665 28.6565 10.9701 28.9724 10.7877C29.2882 10.6052 29.5506 10.343 29.7334 10.0273L32.2603 5.65139C32.3995 5.41501 32.4906 5.15339 32.5282 4.88164C32.5657 4.60989 32.5491 4.33339 32.4793 4.06809C32.4094 3.80279 32.2877 3.55396 32.1212 3.33594C31.9547 3.11793 31.7466 2.93506 31.509 2.79789C31.2715 2.66071 31.0091 2.57195 30.737 2.53673C30.4649 2.5015 30.1886 2.52051 29.9239 2.59266C29.6592 2.66481 29.4114 2.78866 29.1949 2.95707C28.9783 3.12549 28.7973 3.33512 28.6621 3.57389L26.1354 7.95088C25.9532 8.26664 25.8573 8.62477 25.8573 8.98932C25.8573 9.35387 25.9532 9.712 26.1354 10.0278C26.3176 10.3435 26.5797 10.6058 26.8953 10.7882Z" fill="url(#paint0_angular_80_2582)"/>
</g>
<defs>
<radialGradient id="paint0_angular_80_2582" cx="0" cy="0" r="1" gradientUnits="userSpaceOnUse" gradientTransform="translate(21 21) rotate(-76.7595) scale(26.1964 26.1964)">
<stop stop-opacity="0.2"/>
<stop offset="0.5" stop-opacity="0.8"/>
<stop offset="1"/>
</radialGradient>
<clipPath id="clip0_80_2582">
<rect width="42" height="42" fill="white"/>
</clipPath>
</defs>
</svg>
