<svg width="155" height="38" viewBox="0 0 155 38" fill="none" xmlns="http://www.w3.org/2000/svg">
<g clip-path="url(#clip0_82_3259)">
<mask id="mask0_82_3259" style="mask-type:luminance" maskUnits="userSpaceOnUse" x="0" y="0" width="155" height="38">
<path d="M155 0H0V38H155V0Z" fill="white"/>
</mask>
<g mask="url(#mask0_82_3259)">
<path d="M22.8847 21.0791V29.3956L15.2598 33.5539V25.2373L22.8847 21.0791Z" fill="white"/>
<path d="M15.2602 25.2373V33.5539L7.61328 37.7122V29.3956L15.2602 25.2373Z" fill="white"/>
<path d="M7.61319 37.7122L-0.0117188 33.5539V25.2373L7.61319 29.3956V37.7122Z" fill="white"/>
<path d="M-0.0117188 16.9209L7.61319 12.7627L15.2602 16.9209L7.61319 21.0792L-0.0117188 16.9209Z" fill="white"/>
<path d="M7.61319 29.3957L-0.0117188 25.2374V16.9209L7.61319 21.0792V29.3957Z" fill="white"/>
<path d="M15.2598 16.921V8.60451L22.8847 4.44629V12.7628L15.2598 16.921Z" fill="white"/>
<path d="M22.8853 12.7628V4.44634L30.5322 0.288086V8.60456L22.8853 12.7628Z" fill="white"/>
<path d="M30.5322 0.288086L38.1571 4.44634V12.7628L30.5322 8.60456V0.288086Z" fill="white"/>
<path d="M38.1566 21.0792L30.5317 25.2374L22.8848 21.0792L30.5317 16.9209L38.1566 21.0792Z" fill="white"/>
<path d="M30.5322 8.60449L38.1571 12.7628V21.0792L30.5322 16.921V8.60449Z" fill="white"/>
<path d="M65.3076 22.8531V27.5613C64.0109 28.1997 62.6683 28.5189 61.28 28.5189C58.3025 28.5189 55.9098 27.6589 54.1014 25.9387C52.2019 24.1477 51.252 21.9044 51.252 19.2089C51.252 16.5489 52.2019 14.3234 54.1014 12.5323C55.9098 10.8299 58.1839 9.97872 60.9238 9.97872C62.2753 9.97872 63.7369 10.3068 65.3076 10.9629V15.6977C64.0837 14.4387 62.6589 13.8091 61.0334 13.8091C59.5354 13.8091 58.2935 14.2702 57.3071 15.1923C56.1564 16.2741 55.581 17.6395 55.581 19.2887C55.581 20.9025 56.1106 22.2059 57.1701 23.1989C58.1929 24.192 59.5081 24.6885 61.1156 24.6885C62.6315 24.6885 64.0289 24.0767 65.3076 22.8531ZM68.2248 16.2563H72.1703V22.7999C72.1703 23.6689 72.3985 24.3073 72.8553 24.7151C73.2753 25.0875 73.8232 25.2737 74.4992 25.2737C75.1932 25.2737 75.7502 25.0875 76.1705 24.7151C76.6089 24.3073 76.8281 23.6689 76.8281 22.7999V16.2563H80.7736V23.1723C80.7736 23.9881 80.682 24.6974 80.4996 25.3003C80.3352 25.8855 79.9696 26.4441 79.4036 26.9761C78.3257 28.0047 76.6911 28.5189 74.4992 28.5189C72.2889 28.5189 70.645 28.0047 69.5674 26.9761C68.6722 26.1249 68.2248 24.9368 68.2248 23.4117V16.2563ZM90.3444 19.3419H87.9059V28.1199H83.9605V19.3419H82.5905V16.2563H83.9605V12.4259H87.9059V16.2563H90.3444V19.3419ZM105.711 22.8531V27.5613C104.413 28.1997 103.071 28.5189 101.683 28.5189C98.7054 28.5189 96.3127 27.6589 94.5044 25.9387C92.6045 24.1477 91.6549 21.9044 91.6549 19.2089C91.6549 16.5489 92.6045 14.3234 94.5044 12.5323C96.3127 10.8299 98.5868 9.97872 101.327 9.97872C102.678 9.97872 104.139 10.3068 105.711 10.9629V15.6977C104.487 14.4387 103.062 13.8091 101.436 13.8091C99.9384 13.8091 98.6964 14.2702 97.7101 15.1923C96.5593 16.2741 95.9839 17.6395 95.9839 19.2887C95.9839 20.9025 96.5135 22.2059 97.5731 23.1989C98.5958 24.192 99.911 24.6885 101.519 24.6885C103.034 24.6885 104.432 24.0767 105.711 22.8531ZM120.546 17.7725C121.77 18.9607 122.382 20.4325 122.382 22.1881C122.382 23.9437 121.77 25.4156 120.546 26.6037C119.231 27.8805 117.45 28.5189 115.203 28.5189C112.956 28.5189 111.175 27.8805 109.86 26.6037C108.637 25.4156 108.025 23.9437 108.025 22.1881C108.025 20.4325 108.637 18.9607 109.86 17.7725C111.175 16.4957 112.956 15.8573 115.203 15.8573C117.45 15.8573 119.231 16.4957 120.546 17.7725ZM117.422 19.9537C116.838 19.3863 116.098 19.1025 115.203 19.1025C114.308 19.1025 113.569 19.3863 112.984 19.9537C112.381 20.5389 112.08 21.2837 112.08 22.1881C112.08 23.0925 112.381 23.8373 112.984 24.4225C113.569 24.99 114.317 25.2737 115.231 25.2737C116.107 25.2737 116.838 24.99 117.422 24.4225C118.025 23.8373 118.327 23.0925 118.327 22.1881C118.327 21.2837 118.025 20.5389 117.422 19.9537ZM138.158 8.72852V28.1199H134.213V26.6835C133.354 27.9071 132.066 28.5189 130.349 28.5189C128.633 28.5189 127.235 27.9781 126.157 26.8963C124.879 25.655 124.239 24.0679 124.239 22.1349C124.239 20.202 124.879 18.6415 126.157 17.4533C127.308 16.3893 128.724 15.8573 130.404 15.8573C132.066 15.8573 133.336 16.4337 134.213 17.5863V8.72852H138.158ZM131.363 19.1557C130.523 19.1557 129.82 19.4217 129.253 19.9537C128.614 20.5389 128.294 21.2926 128.294 22.2147C128.294 23.0837 128.614 23.8107 129.253 24.3959C129.838 24.9457 130.523 25.2205 131.308 25.2205C132.185 25.2205 132.934 24.9279 133.555 24.3427C134.158 23.793 134.459 23.0837 134.459 22.2147C134.459 21.3635 134.167 20.6365 133.582 20.0335C132.998 19.4483 132.258 19.1557 131.363 19.1557ZM144.859 20.5655H150.202C150.055 19.9981 149.791 19.537 149.407 19.1823C148.914 18.739 148.293 18.5173 147.544 18.5173C146.74 18.5173 146.074 18.7745 145.544 19.2887C145.178 19.6611 144.95 20.0867 144.859 20.5655ZM153.846 22.4541V22.8531H144.722C144.722 23.6689 144.969 24.3427 145.462 24.8747C145.937 25.3713 146.613 25.6195 147.489 25.6195C148.147 25.6195 148.676 25.5043 149.078 25.2737C149.389 25.1141 149.672 24.7861 149.928 24.2895L153.654 24.6619C153.234 25.9565 152.449 26.9495 151.298 27.6411C150.293 28.2263 149.005 28.5189 147.435 28.5189C145.352 28.5189 143.726 27.9515 142.558 26.8165C141.334 25.6284 140.722 24.1033 140.722 22.2413C140.722 20.3616 141.343 18.8011 142.585 17.5597C143.754 16.4248 145.315 15.8573 147.27 15.8573C149.334 15.8573 150.951 16.4514 152.12 17.6395C153.271 18.8277 153.846 20.4325 153.846 22.4541Z" fill="white"/>
</g>
</g>
<defs>
<clipPath id="clip0_82_3259">
<rect width="155" height="38" fill="white"/>
</clipPath>
</defs>
</svg>
