<svg width="179" height="175" viewBox="0 0 179 175" fill="none" xmlns="http://www.w3.org/2000/svg">
<path d="M72.934 14.7278C73.2489 14.3215 73.8206 14.2201 74.256 14.4933L89.1465 23.8372C89.4418 24.0225 89.8124 24.0406 90.1244 23.885L105.855 16.0376C106.315 15.8081 106.874 15.9648 107.148 16.3999L116.509 31.2792C116.695 31.5743 117.021 31.7514 117.37 31.7465L134.947 31.5015C135.461 31.4943 135.897 31.8781 135.955 32.3889L137.934 49.8565C137.973 50.203 138.19 50.504 138.506 50.6509L154.449 58.0568C154.916 58.2733 155.142 58.8081 154.972 59.2934L149.176 75.8897C149.061 76.2189 149.126 76.5842 149.347 76.8538L160.498 90.4437C160.824 90.8411 160.796 91.421 160.432 91.7848L148.009 104.223C147.763 104.469 147.663 104.827 147.745 105.165L151.895 122.248C152.017 122.747 151.74 123.258 151.255 123.428L134.665 129.244C134.336 129.359 134.091 129.637 134.018 129.978L130.346 147.17C130.238 147.673 129.767 148.012 129.256 147.955L111.786 145.997C111.44 145.958 111.098 146.103 110.884 146.378L100.117 160.274C99.8016 160.68 99.23 160.781 98.7945 160.508L83.9041 151.164C83.6088 150.979 83.2382 150.961 82.9262 151.116L67.1956 158.964C66.7356 159.193 66.1765 159.037 65.9028 158.602L56.5411 143.722C56.3554 143.427 56.0294 143.25 55.6808 143.255L38.1031 143.5C37.5891 143.507 37.1534 143.123 37.0955 142.613L35.1169 125.145C35.0776 124.798 34.8607 124.497 34.5445 124.351L18.6013 116.945C18.1351 116.728 17.909 116.193 18.0785 115.708L23.8747 99.1117C23.9896 98.7825 23.9248 98.4172 23.7036 98.1477L12.5526 84.5577C12.2265 84.1603 12.2549 83.5804 12.6181 83.2167L25.0412 70.7788C25.2876 70.5321 25.3877 70.1749 25.3054 69.836L21.1551 52.7536C21.0338 52.2541 21.3109 51.7439 21.796 51.5738L38.3854 45.7578C38.7145 45.6425 38.9597 45.3641 39.0325 45.0231L42.705 27.8316C42.8124 27.3289 43.2835 26.9895 43.7943 27.0467L61.2643 29.0046C61.6108 29.0434 61.9525 28.899 62.1661 28.6233L72.934 14.7278Z" fill="#7700C0"/>
<path d="M44.1205 65.8981C45.4185 65.8981 46.5625 66.2061 47.5525 66.8221C48.5645 67.4381 49.3455 68.2961 49.8955 69.3961C50.4455 70.4961 50.7205 71.7391 50.7205 73.1251C50.7205 75.3911 49.9725 77.1731 48.4765 78.4711C46.9805 79.7691 44.7915 80.4181 41.9095 80.4181L39.4675 80.3521L39.4675 88.5691L36.7615 88.5691L36.7615 65.8981L44.1205 65.8981ZM42.3055 77.9101C44.1755 77.9101 45.5945 77.4921 46.5625 76.6561C47.5305 75.7981 48.0145 74.5881 48.0145 73.0261C48.0145 71.5741 47.6185 70.4411 46.8265 69.6271C46.0345 68.8131 44.9895 68.4061 43.6915 68.4061L39.4675 68.4061L39.4675 77.8111L40.6225 77.8441C41.4585 77.8881 42.0195 77.9101 42.3055 77.9101ZM55.453 65.8981L58.159 65.8981L58.159 75.5011L69.214 75.5011L69.214 65.8981L71.92 65.8981L71.92 88.5691L69.214 88.5691L69.214 78.0751L58.159 78.0751L58.159 88.5691L55.453 88.5691L55.453 65.8981ZM85.6928 65.8981C86.9908 65.8981 88.1348 66.2061 89.1248 66.8221C90.1368 67.4381 90.9178 68.2961 91.4678 69.3961C92.0178 70.4961 92.2928 71.7391 92.2928 73.1251C92.2928 75.3911 91.5448 77.1731 90.0488 78.4711C88.5528 79.7691 86.3638 80.4181 83.4818 80.4181L81.0398 80.3521L81.0398 88.5691L78.3338 88.5691L78.3338 65.8981L85.6928 65.8981ZM83.8778 77.9101C85.7478 77.9101 87.1668 77.4921 88.1348 76.6561C89.1028 75.7981 89.5868 74.5881 89.5868 73.0261C89.5868 71.5741 89.1908 70.4411 88.3988 69.6271C87.6068 68.8131 86.5618 68.4061 85.2638 68.4061L81.0398 68.4061L81.0398 77.8111L82.1948 77.8441C83.0308 77.8881 83.5918 77.9101 83.8778 77.9101ZM111.778 88.7341C110.326 88.7341 109.006 88.4921 107.818 88.0081C106.63 87.5241 105.75 86.9301 105.178 86.2261L106.432 84.3121C107.268 85.0161 108.06 85.5111 108.808 85.7971C109.556 86.0831 110.447 86.2261 111.481 86.2261C113.043 86.2261 114.297 85.7531 115.243 84.8071C116.189 83.8611 116.662 82.5851 116.662 80.9791C116.662 79.4831 116.167 78.3831 115.177 77.6791C114.187 76.9531 112.647 76.5901 110.557 76.5901C108.357 76.5901 106.817 76.8431 105.937 77.3491L105.937 67.4491L117.388 67.3831L117.388 69.9241L108.643 69.8911L108.643 74.1481C109.105 74.0601 109.666 74.0161 110.326 74.0161C110.986 74.0161 111.371 74.0161 111.481 74.0161C113.065 74.0161 114.451 74.3131 115.639 74.9071C116.827 75.5011 117.74 76.3481 118.378 77.4481C119.038 78.5261 119.368 79.7801 119.368 81.2101C119.368 82.6181 119.027 83.8941 118.345 85.0381C117.685 86.1821 116.772 87.0841 115.606 87.7441C114.462 88.4041 113.186 88.7341 111.778 88.7341ZM124.657 84.0811C124.503 83.3991 124.426 82.7171 124.426 82.0351C124.426 80.5171 124.866 79.3181 125.746 78.4381C126.054 78.1301 126.384 77.8661 126.736 77.6461C127.11 77.4261 127.55 77.1841 128.056 76.9201L128.716 76.5571C130.014 75.8531 130.971 75.1161 131.587 74.3461C132.203 73.5761 132.511 72.7401 132.511 71.8381C132.511 70.6061 132.104 69.5831 131.29 68.7691C130.498 67.9551 129.475 67.5481 128.221 67.5481C127.231 67.5481 126.373 67.7681 125.647 68.2081C124.943 68.6261 124.569 69.1101 124.525 69.6601L124.525 69.7591C124.525 70.1331 124.69 70.3531 125.02 70.4191L124.459 72.6631C123.711 72.5751 123.095 72.2561 122.611 71.7061C122.127 71.1341 121.885 70.4631 121.885 69.6931C121.885 68.8131 122.16 68.0211 122.71 67.3171C123.282 66.5911 124.052 66.0301 125.02 65.6341C125.988 65.2381 127.077 65.0401 128.287 65.0401C129.541 65.0401 130.696 65.3591 131.752 65.9971C132.808 66.6131 133.644 67.4601 134.26 68.5381C134.898 69.5941 135.217 70.7491 135.217 72.0031C135.217 73.3451 134.799 74.5441 133.963 75.6001C133.127 76.6341 131.818 77.6351 130.036 78.6031C129.354 78.9771 128.683 79.4061 128.023 79.8901C127.253 80.4621 126.868 81.2541 126.868 82.2661C126.868 82.7061 126.945 83.1461 127.099 83.5861L124.657 84.0811ZM126.373 88.9651C125.933 88.9651 125.537 88.7891 125.185 88.4371C124.833 88.0851 124.657 87.6891 124.657 87.2491C124.657 86.7871 124.833 86.3801 125.185 86.0281C125.537 85.6761 125.933 85.5001 126.373 85.5001C126.835 85.5001 127.242 85.6761 127.594 86.0281C127.968 86.3801 128.155 86.7871 128.155 87.2491C128.155 87.6891 127.968 88.0851 127.594 88.4371C127.242 88.7891 126.835 88.9651 126.373 88.9651ZM43.2265 99.1881L43.2265 111.554L41.7505 111.554L41.7505 100.556L39.1585 100.556C38.5465 100.556 38.0425 100.784 37.6465 101.24C37.2625 101.696 37.0705 102.284 37.0705 103.004C37.0705 103.724 37.2745 104.294 37.6825 104.714C38.0905 105.122 38.6485 105.326 39.3565 105.326L41.0845 105.326L41.0845 106.712C40.6525 106.724 40.2865 106.796 39.9865 106.928C39.6985 107.048 39.4645 107.198 39.2845 107.378C39.1165 107.558 38.9185 107.798 38.6905 108.098L36.6025 110.96C36.2305 111.464 35.7265 111.716 35.0905 111.716C34.6105 111.716 34.2625 111.596 34.0465 111.356L34.6945 110.222C34.8025 110.33 34.9285 110.384 35.0725 110.384C35.1565 110.384 35.2345 110.36 35.3065 110.312C35.3905 110.252 35.4865 110.156 35.5945 110.024C35.7145 109.868 36.2425 109.16 37.1785 107.9L37.8445 107C38.0365 106.76 38.2105 106.592 38.3665 106.496C38.5345 106.388 38.7925 106.286 39.1405 106.19C38.4805 106.19 38.0005 106.148 37.7005 106.064C37.1125 105.896 36.6145 105.506 36.2065 104.894C35.7985 104.282 35.5945 103.592 35.5945 102.824C35.5945 102.188 35.7445 101.594 36.0445 101.042C36.3565 100.478 36.7765 100.028 37.3045 99.6921C37.8445 99.3561 38.4385 99.1881 39.0865 99.1881L43.2265 99.1881ZM59.2075 111.536L57.7315 111.536L57.7315 107.792L53.1415 107.792L53.1415 111.536L51.6655 111.536L51.6655 104.894C51.6655 104.21 51.4435 103.646 50.9995 103.202L52.0075 102.212C52.7635 102.968 53.1415 103.856 53.1415 104.876L53.1415 106.424L57.7315 106.424L57.7315 102.536L59.2075 102.536L59.2075 111.536ZM62.8097 107.54C62.8337 108.272 63.0317 108.932 63.4037 109.52C63.7877 110.096 64.4837 110.384 65.4917 110.384C65.9717 110.384 66.4157 110.312 66.8237 110.168C67.2437 110.024 67.7477 109.796 68.3357 109.484L69.0017 110.546C68.5337 110.906 67.9817 111.194 67.3457 111.41C66.7097 111.626 66.0677 111.734 65.4197 111.734C64.5797 111.734 63.8477 111.542 63.2237 111.158C62.6117 110.774 62.1437 110.246 61.8197 109.574C61.4957 108.89 61.3337 108.116 61.3337 107.252C61.3337 106.376 61.4957 105.56 61.8197 104.804C62.1437 104.036 62.6117 103.418 63.2237 102.95C63.8477 102.482 64.5857 102.248 65.4377 102.248C66.1337 102.248 66.7697 102.416 67.3457 102.752C67.9217 103.088 68.3717 103.55 68.6957 104.138C69.0317 104.726 69.1997 105.38 69.1997 106.1C69.1997 106.304 69.1937 106.484 69.1817 106.64C69.1697 106.784 69.1577 106.91 69.1457 107.018L69.0917 107.54L62.8097 107.54ZM67.8137 106.19L67.8137 106.046C67.8137 105.566 67.7057 105.134 67.4897 104.75C67.2857 104.366 66.9977 104.066 66.6257 103.85C66.2657 103.634 65.8637 103.526 65.4197 103.526C64.7957 103.526 64.2557 103.754 63.7997 104.21C63.3437 104.666 63.0437 105.326 62.8997 106.19L67.8137 106.19ZM80.6178 102.446C81.2178 102.446 81.7338 102.56 82.1657 102.788C82.5978 103.004 82.9218 103.298 83.1378 103.67C83.3658 104.03 83.4798 104.42 83.4798 104.84C83.4798 105.2 83.4078 105.554 83.2638 105.902C83.1318 106.25 82.9218 106.46 82.6338 106.532C83.0778 106.7 83.4138 107 83.6418 107.432C83.8818 107.864 84.0018 108.338 84.0018 108.854C84.0018 109.622 83.7438 110.264 83.2278 110.78C82.7118 111.284 81.9738 111.536 81.0138 111.536L76.7297 111.536L76.7297 102.446L80.6178 102.446ZM80.3658 106.064C80.8818 106.064 81.2898 105.968 81.5897 105.776C81.8897 105.572 82.0397 105.272 82.0397 104.876C82.0397 104.168 81.5537 103.814 80.5817 103.814L78.1697 103.814L78.1697 106.064L80.3658 106.064ZM80.3478 110.168C81.0798 110.168 81.6317 110.066 82.0037 109.862C82.3758 109.658 82.5618 109.304 82.5618 108.8C82.5618 108.272 82.3698 107.906 81.9858 107.702C81.6018 107.498 81.0558 107.396 80.3478 107.396L78.1697 107.396L78.1697 110.168L80.3478 110.168ZM86.0487 105.2C86.0487 104.264 85.7967 103.58 85.2927 103.148L86.2827 102.23C86.5827 102.398 86.8587 102.698 87.1107 103.13C87.3747 103.562 87.5127 104.024 87.5247 104.516L87.5247 105.488L89.5767 105.488C90.8007 105.488 91.7307 105.728 92.3667 106.208C93.0027 106.688 93.3207 107.48 93.3207 108.584C93.3207 109.64 93.0147 110.408 92.4027 110.888C91.7907 111.356 90.9147 111.59 89.7747 111.59L86.0487 111.536L86.0487 105.2ZM96.1827 102.536L96.1827 111.536L94.7067 111.536L94.7067 102.536L96.1827 102.536ZM89.7927 110.186C90.4647 110.186 90.9747 110.042 91.3227 109.754C91.6707 109.466 91.8447 109.064 91.8447 108.548C91.8447 107.936 91.6587 107.498 91.2867 107.234C90.9267 106.958 90.3927 106.82 89.6847 106.82L87.5247 106.838L87.5247 110.186L89.7927 110.186ZM99.4709 102.536L100.857 102.536L104.115 109.394L107.337 102.536L108.741 102.536L109.785 111.536L108.399 111.536L107.643 105.02L104.709 111.05L103.503 111.05L100.569 105.02L99.8489 111.536L98.4089 111.536L99.4709 102.536ZM112.855 107.54C112.879 108.272 113.077 108.932 113.449 109.52C113.833 110.096 114.529 110.384 115.537 110.384C116.017 110.384 116.461 110.312 116.869 110.168C117.289 110.024 117.793 109.796 118.381 109.484L119.047 110.546C118.579 110.906 118.027 111.194 117.391 111.41C116.755 111.626 116.113 111.734 115.465 111.734C114.625 111.734 113.893 111.542 113.269 111.158C112.657 110.774 112.189 110.246 111.865 109.574C111.541 108.89 111.379 108.116 111.379 107.252C111.379 106.376 111.541 105.56 111.865 104.804C112.189 104.036 112.657 103.418 113.269 102.95C113.893 102.482 114.631 102.248 115.483 102.248C116.179 102.248 116.815 102.416 117.391 102.752C117.967 103.088 118.417 103.55 118.741 104.138C119.077 104.726 119.245 105.38 119.245 106.1C119.245 106.304 119.239 106.484 119.227 106.64C119.215 106.784 119.203 106.91 119.191 107.018L119.137 107.54L112.855 107.54ZM117.859 106.19L117.859 106.046C117.859 105.566 117.751 105.134 117.535 104.75C117.331 104.366 117.043 104.066 116.671 103.85C116.311 103.634 115.909 103.526 115.465 103.526C114.841 103.526 114.301 103.754 113.845 104.21C113.389 104.666 113.089 105.326 112.945 106.19L117.859 106.19ZM125.284 102.284C126.124 102.284 126.838 102.494 127.426 102.914C128.026 103.334 128.476 103.898 128.776 104.606C129.088 105.302 129.244 106.07 129.244 106.91C129.244 107.834 129.064 108.662 128.704 109.394C128.356 110.114 127.84 110.684 127.156 111.104C126.484 111.512 125.692 111.716 124.78 111.716C124.42 111.716 123.808 111.662 122.944 111.554L122.944 116.216L121.522 116.216L121.522 105.236C121.522 104.3 121.27 103.616 120.766 103.184L121.756 102.266C121.936 102.374 122.116 102.536 122.296 102.752C122.476 102.956 122.626 103.196 122.746 103.472C123.034 103.112 123.412 102.824 123.88 102.608C124.348 102.392 124.816 102.284 125.284 102.284ZM124.69 110.384C125.698 110.384 126.46 110.078 126.976 109.466C127.504 108.854 127.768 108.038 127.768 107.018C127.768 106.058 127.546 105.254 127.102 104.606C126.658 103.946 126.064 103.616 125.32 103.616C124.732 103.616 124.198 103.808 123.718 104.192C123.25 104.564 122.992 105.044 122.944 105.632L122.944 110.276C123.664 110.348 124.246 110.384 124.69 110.384ZM131.173 98.8281L132.811 98.8281L132.649 109.124L131.335 109.124L131.173 98.8281ZM131.965 111.86C131.725 111.86 131.509 111.764 131.317 111.572C131.125 111.38 131.029 111.164 131.029 110.924C131.029 110.672 131.125 110.45 131.317 110.258C131.509 110.066 131.725 109.97 131.965 109.97C132.217 109.97 132.439 110.066 132.631 110.258C132.835 110.45 132.937 110.672 132.937 110.924C132.937 111.164 132.835 111.38 132.631 111.572C132.439 111.764 132.217 111.86 131.965 111.86Z" fill="white"/>
<circle cx="165.5" cy="136.476" r="9.5" fill="#7700C0"/>
</svg>
