<svg width="116" height="116" viewBox="0 0 116 116" fill="none" xmlns="http://www.w3.org/2000/svg">
<path d="M48.6294 10.0579C48.9196 9.41922 49.7601 9.27013 50.2523 9.76997L59.1978 18.8543C59.563 19.2251 60.1515 19.2539 60.5511 18.9204L70.3398 10.7517C70.8784 10.3022 71.7003 10.5325 71.9269 11.1964L76.045 23.2625C76.2131 23.755 76.7309 24.0363 77.2356 23.9092L89.5992 20.7966C90.2795 20.6253 90.9201 21.1895 90.8362 21.8859L89.3112 34.5438C89.249 35.0605 89.5934 35.5386 90.1032 35.6431L102.593 38.2031C103.28 38.3439 103.613 39.1301 103.235 39.7212L96.3688 50.464C96.0886 50.9025 96.1915 51.4826 96.6055 51.798L106.748 59.5236C107.306 59.9486 107.264 60.8012 106.667 61.1699L95.82 67.8697C95.3773 68.1432 95.2183 68.7105 95.4544 69.1743L101.24 80.5353C101.559 81.1604 101.151 81.9105 100.453 81.9837L87.7735 83.3136C87.2559 83.3679 86.8665 83.8101 86.8781 84.3303L87.1615 97.0766C87.1771 97.778 86.4846 98.277 85.8242 98.0402L73.823 93.7368C73.3331 93.5611 72.7904 93.7906 72.5751 94.2644L67.3001 105.871C67.0098 106.51 66.1693 106.659 65.6771 106.159L56.7316 97.0749C56.3664 96.7041 55.7779 96.6753 55.3783 97.0088L45.5896 105.178C45.051 105.627 44.2291 105.397 44.0025 104.733L39.8844 92.6667C39.7163 92.1742 39.1985 91.8929 38.6938 92.02L26.3302 95.1326C25.6499 95.3039 25.0093 94.7398 25.0932 94.0433L26.6182 81.3854C26.6805 80.8687 26.336 80.3906 25.8262 80.2861L13.3364 77.7261C12.6492 77.5853 12.3168 76.7991 12.6946 76.208L19.5606 65.4653C19.8409 65.0267 19.7379 64.4466 19.3239 64.1312L9.18179 56.4056C8.62374 55.9806 8.66541 55.128 9.26224 54.7593L20.1094 48.0595C20.5522 47.7861 20.7112 47.2187 20.475 46.7549L14.6892 35.3939C14.3709 34.7688 14.7783 34.0187 15.476 33.9456L28.1559 32.6156C28.6735 32.5613 29.0629 32.1192 29.0513 31.5989L28.7679 18.8526C28.7523 18.1512 29.4449 17.6523 30.1052 17.889L42.1064 22.1924C42.5963 22.3681 43.139 22.1386 43.3543 21.6648L48.6294 10.0579Z" fill="#F824FF"/>
<path d="M32.1138 61.5612C31.9875 60.849 31.772 60.226 31.4674 59.6923C31.1832 59.1551 30.7351 58.6993 30.123 58.3252L31.47 56.512C32.3909 56.8524 33.156 57.5562 33.7651 58.6236C34.8062 56.8017 36.3239 55.7139 38.3181 55.3602C39.9256 55.075 41.2751 55.2869 42.3663 55.9958C43.478 56.7012 44.1818 57.8882 44.4778 59.5568L46.3675 70.2095L43.87 70.684L42.0344 60.3365C41.8575 59.3394 41.5049 58.5939 40.9765 58.0999C40.4481 57.606 39.6446 57.4547 38.5661 57.646C37.6301 57.812 36.8762 58.1766 36.3044 58.7398C35.7494 59.2791 35.1923 60.102 34.633 61.2087L36.5389 71.953L34.036 72.397L32.1138 61.5612ZM51.0178 62.3951C51.3027 63.6459 51.837 64.7055 52.6207 65.574C53.4248 66.4388 54.6611 66.7233 56.3298 66.4273C57.2048 66.272 57.9953 65.9954 58.7013 65.5973C59.4036 65.1788 60.1214 64.6107 60.8547 63.8929L62.3503 65.5796C61.7056 66.3237 60.8682 66.9865 59.8379 67.568C58.8041 68.1292 57.7275 68.5091 56.6084 68.7076C55.1839 68.9603 53.8951 68.8531 52.7417 68.3861C51.5848 67.8987 50.6306 67.1339 49.879 66.0918C49.1238 65.0294 48.6163 63.7656 48.3564 62.3005C48.0965 60.8354 48.1156 59.4047 48.4136 58.0085C48.732 56.6087 49.3397 55.42 50.2367 54.4423C51.1541 53.4609 52.3352 52.8421 53.7799 52.5858C54.9602 52.3765 56.0892 52.47 57.167 52.8665C58.2449 53.263 59.1589 53.9195 59.9092 54.8359C60.6558 55.7319 61.1374 56.7904 61.354 58.0113C61.4443 58.52 61.5498 59.3514 61.6705 60.5054L51.0178 62.3951ZM58.9195 58.6636L58.8654 58.3583C58.7246 57.5647 58.4151 56.885 57.9369 56.3191C57.4755 55.7293 56.907 55.3055 56.2316 55.0475C55.5765 54.7859 54.8827 54.72 54.1501 54.85C53.1123 55.0341 52.2754 55.5814 51.6393 56.4918C51.0235 57.3986 50.7235 58.6062 50.7392 60.1147L58.9195 58.6636ZM64.086 54.1579C63.9229 53.83 63.6395 53.534 63.2358 53.2697C62.8488 52.9816 62.5104 52.7897 62.2206 52.6942L63.0896 50.4936C64.5531 51.0526 65.7057 52.1075 66.5475 53.6583L70.762 61.4428L72.4268 49.5299L74.655 49.1346L80.3464 59.7426L82.0112 47.8297L84.5446 47.3803L82.2338 63.8155L79.9751 64.2162L74.3142 53.6028L72.6189 65.5212L70.3602 65.9218L64.086 54.1579Z" fill="black"/>
</svg>
