<svg width="32" height="32" viewBox="0 0 32 32" fill="none" xmlns="http://www.w3.org/2000/svg">
<path d="M20.0066 9.99981V21.9998C20.0066 22.265 19.9013 22.5194 19.7138 22.7069C19.5262 22.8945 19.2719 22.9998 19.0066 22.9998H16.0066V27.9998C16.0068 28.1977 15.9482 28.3912 15.8384 28.5558C15.7285 28.7204 15.5723 28.8487 15.3894 28.9244C15.2066 29.0002 15.0054 29.02 14.8113 28.9813C14.6173 28.9427 14.439 28.8473 14.2991 28.7073L2.29915 16.7073C2.20617 16.6144 2.13241 16.5041 2.08209 16.3828C2.03176 16.2614 2.00586 16.1312 2.00586 15.9998C2.00586 15.8684 2.03176 15.7383 2.08209 15.6169C2.13241 15.4955 2.20617 15.3852 2.29915 15.2923L14.2991 3.29231C14.439 3.1523 14.6173 3.05693 14.8113 3.01828C15.0054 2.97963 15.2066 2.99944 15.3894 3.07519C15.5723 3.15094 15.7285 3.27923 15.8384 3.44383C15.9482 3.60842 16.0068 3.80192 16.0066 3.99981V8.99981H19.0066C19.2719 8.99981 19.5262 9.10517 19.7138 9.2927C19.9013 9.48024 20.0066 9.73459 20.0066 9.99981ZM23.0066 8.99981C22.7414 8.99981 22.4871 9.10517 22.2995 9.2927C22.112 9.48024 22.0066 9.73459 22.0066 9.99981V21.9998C22.0066 22.265 22.112 22.5194 22.2995 22.7069C22.4871 22.8945 22.7414 22.9998 23.0066 22.9998C23.2719 22.9998 23.5262 22.8945 23.7138 22.7069C23.9013 22.5194 24.0066 22.265 24.0066 21.9998V9.99981C24.0066 9.73459 23.9013 9.48024 23.7138 9.2927C23.5262 9.10517 23.2719 8.99981 23.0066 8.99981ZM27.0066 8.99981C26.7414 8.99981 26.4871 9.10517 26.2995 9.2927C26.112 9.48024 26.0066 9.73459 26.0066 9.99981V21.9998C26.0066 22.265 26.112 22.5194 26.2995 22.7069C26.4871 22.8945 26.7414 22.9998 27.0066 22.9998C27.2719 22.9998 27.5262 22.8945 27.7138 22.7069C27.9013 22.5194 28.0066 22.265 28.0066 21.9998V9.99981C28.0066 9.73459 27.9013 9.48024 27.7138 9.2927C27.5262 9.10517 27.2719 8.99981 27.0066 8.99981Z" fill="#F824FF"/>
</svg>
