<svg width="32" height="32" viewBox="0 0 32 32" fill="none" xmlns="http://www.w3.org/2000/svg">
<path d="M13.9363 6.57875C13.7015 6.3445 13.4114 6.17318 13.0929 6.0806C12.7743 5.98802 12.4376 5.97716 12.1138 6.04903C11.7899 6.12089 11.4894 6.27317 11.2399 6.49181C10.9905 6.71044 10.8001 6.98839 10.6863 7.3L4.12509 25.3475C4.01731 25.6451 3.98249 25.9642 4.02357 26.2781C4.06464 26.5919 4.18041 26.8914 4.36116 27.1512C4.5419 27.4111 4.78235 27.6238 5.06231 27.7715C5.34227 27.9191 5.65357 27.9975 5.97009 28C6.20314 27.9984 6.43411 27.9561 6.65259 27.875L24.6988 21.3125C25.0106 21.1989 25.2886 21.0086 25.5074 20.7592C25.7262 20.5098 25.8786 20.2093 25.9506 19.8855C26.0226 19.5616 26.0118 19.2248 25.9193 18.9062C25.8268 18.5876 25.6556 18.2975 25.4213 18.0625L13.9363 6.57875ZM8.14259 20.1413L10.5426 13.5425L18.4576 21.4575L11.8576 23.8575L8.14259 20.1413ZM20.0001 9C20.0189 8.32396 20.1826 7.65983 20.4801 7.0525C21.1426 5.72875 22.3926 5 24.0001 5C24.8376 5 25.3751 4.71375 25.7063 4.09875C25.8808 3.75468 25.9808 3.37777 26.0001 2.9925C26.0011 2.72728 26.1074 2.47332 26.2956 2.28649C26.4839 2.09966 26.7386 1.99526 27.0038 1.99625C27.2691 1.99724 27.523 2.10356 27.7099 2.29179C27.8967 2.48003 28.0011 2.73478 28.0001 3C28.0001 4.6075 26.9351 7 24.0001 7C23.1626 7 22.6251 7.28625 22.2938 7.90125C22.1194 8.24532 22.0193 8.62223 22.0001 9.0075C21.9996 9.13882 21.9732 9.26876 21.9225 9.3899C21.8718 9.51104 21.7978 9.621 21.7045 9.71351C21.6113 9.80602 21.5008 9.87927 21.3793 9.92906C21.2578 9.97886 21.1277 10.0042 20.9963 10.0037C20.865 10.0033 20.7351 9.9769 20.6139 9.92619C20.4928 9.87548 20.3828 9.80141 20.2903 9.70821C20.1978 9.615 20.1246 9.50448 20.0748 9.38297C20.025 9.26145 19.9996 9.13132 20.0001 9ZM17.0001 5V2C17.0001 1.73478 17.1055 1.48043 17.293 1.29289C17.4805 1.10536 17.7349 1 18.0001 1C18.2653 1 18.5197 1.10536 18.7072 1.29289C18.8947 1.48043 19.0001 1.73478 19.0001 2V5C19.0001 5.26522 18.8947 5.51957 18.7072 5.70711C18.5197 5.89464 18.2653 6 18.0001 6C17.7349 6 17.4805 5.89464 17.293 5.70711C17.1055 5.51957 17.0001 5.26522 17.0001 5ZM29.7076 15.2925C29.8004 15.3854 29.874 15.4957 29.9242 15.6171C29.9745 15.7384 30.0003 15.8685 30.0002 15.9998C30.0001 16.1312 29.9742 16.2612 29.9239 16.3825C29.8736 16.5038 29.7999 16.614 29.707 16.7069C29.6141 16.7997 29.5038 16.8733 29.3824 16.9235C29.2611 16.9737 29.131 16.9995 28.9997 16.9995C28.8683 16.9994 28.7383 16.9735 28.617 16.9232C28.4956 16.8729 28.3854 16.7992 28.2926 16.7062L26.2926 14.7063C26.105 14.5186 25.9995 14.2641 25.9995 13.9987C25.9995 13.7334 26.105 13.4789 26.2926 13.2913C26.4802 13.1036 26.7347 12.9982 27.0001 12.9982C27.2655 12.9982 27.52 13.1036 27.7076 13.2913L29.7076 15.2925ZM30.3163 9.94875L27.3163 10.9487C27.0647 11.0326 26.7901 11.0131 26.5528 10.8945C26.3156 10.7759 26.1352 10.5679 26.0513 10.3162C25.9675 10.0646 25.987 9.78999 26.1056 9.55276C26.2242 9.31552 26.4322 9.13513 26.6838 9.05125L29.6838 8.05125C29.9355 7.96738 30.2101 7.98689 30.4473 8.10551C30.6846 8.22413 30.865 8.43213 30.9488 8.68375C31.0327 8.93537 31.0132 9.21001 30.8946 9.44724C30.776 9.68448 30.568 9.86487 30.3163 9.94875Z" fill="#7700C0"/>
</svg>
