<svg width="32" height="33" viewBox="0 0 32 33" fill="none" xmlns="http://www.w3.org/2000/svg">
<path d="M12.007 10.4998V22.4998C12.007 22.765 12.1124 23.0194 12.2999 23.2069C12.4875 23.3945 12.7418 23.4998 13.007 23.4998H16.007V28.4998C16.0069 28.6977 16.0654 28.8912 16.1753 29.0558C16.2852 29.2204 16.4414 29.3487 16.6242 29.4244C16.8071 29.5002 17.0082 29.52 17.2023 29.4813C17.3964 29.4427 17.5747 29.3473 17.7145 29.2073L29.7145 17.2073C29.8075 17.1144 29.8813 17.0041 29.9316 16.8828C29.9819 16.7614 30.0078 16.6312 30.0078 16.4998C30.0078 16.3684 29.9819 16.2383 29.9316 16.1169C29.8813 15.9955 29.8075 15.8852 29.7145 15.7923L17.7145 3.79231C17.5747 3.6523 17.3964 3.55693 17.2023 3.51828C17.0082 3.47963 16.8071 3.49944 16.6242 3.57519C16.4414 3.65094 16.2852 3.77923 16.1753 3.94383C16.0654 4.10842 16.0069 4.30192 16.007 4.49981V9.49981H13.007C12.7418 9.49981 12.4875 9.60517 12.2999 9.7927C12.1124 9.98024 12.007 10.2346 12.007 10.4998ZM9.00703 9.49981C9.27224 9.49981 9.5266 9.60517 9.71413 9.7927C9.90167 9.98024 10.007 10.2346 10.007 10.4998V22.4998C10.007 22.765 9.90167 23.0194 9.71413 23.2069C9.5266 23.3945 9.27224 23.4998 9.00703 23.4998C8.74181 23.4998 8.48746 23.3945 8.29992 23.2069C8.11238 23.0194 8.00703 22.765 8.00703 22.4998V10.4998C8.00703 10.2346 8.11238 9.98024 8.29992 9.7927C8.48746 9.60517 8.74181 9.49981 9.00703 9.49981ZM5.00703 9.49981C5.27224 9.49981 5.5266 9.60517 5.71413 9.7927C5.90167 9.98024 6.00703 10.2346 6.00703 10.4998V22.4998C6.00703 22.765 5.90167 23.0194 5.71413 23.2069C5.5266 23.3945 5.27224 23.4998 5.00703 23.4998C4.74181 23.4998 4.48746 23.3945 4.29992 23.2069C4.11238 23.0194 4.00703 22.765 4.00703 22.4998V10.4998C4.00703 10.2346 4.11238 9.98024 4.29992 9.7927C4.48746 9.60517 4.74181 9.49981 5.00703 9.49981Z" fill="#7700C0"/>
</svg>
